<svg width="14" height="15" viewBox="0 0 14 15" fill="none" xmlns="http://www.w3.org/2000/svg">
<path d="M6.8163 0.618644C6.94137 0.460452 7.19151 0.460452 7.34785 0.618644L13.8827 7.23107C14.0391 7.38927 14.0391 7.61073 13.8827 7.76893L7.34785 14.3814C7.19151 14.5395 6.94137 14.5395 6.8163 14.3814L6.19095 13.7802C6.03462 13.622 6.03462 13.3689 6.19095 13.2424L11.0374 8.30678H0.375209C0.156337 8.30678 0 8.14859 0 7.92712V7.04124C0 6.85141 0.156337 6.66158 0.375209 6.66158H11.0374L6.19095 1.75763C6.03462 1.63107 6.03462 1.37797 6.19095 1.21977L6.8163 0.618644Z" fill="currentColor"/>
</svg>
