<svg width="43" height="43" viewBox="0 0 43 43" fill="none" xmlns="http://www.w3.org/2000/svg">
<circle cx="21.5" cy="21.5" r="20.75" stroke="currentColor" stroke-width="1.5"/>
<path d="M21.8163 14.1186C21.9414 13.9605 22.1915 13.9605 22.3479 14.1186L28.8827 20.7311C29.0391 20.8893 29.0391 21.1107 28.8827 21.2689L22.3479 27.8814C22.1915 28.0395 21.9414 28.0395 21.8163 27.8814L21.191 27.2802C21.0346 27.122 21.0346 26.8689 21.191 26.7424L26.0374 21.8068H15.3752C15.1563 21.8068 15 21.6486 15 21.4271V20.5412C15 20.3514 15.1563 20.1616 15.3752 20.1616H26.0374L21.191 15.2576C21.0346 15.1311 21.0346 14.878 21.191 14.7198L21.8163 14.1186Z" fill="currentColor"/>
</svg>
